<?xml version="1.0" standalone="no"?>
<!DOCTYPE svg PUBLIC "-//W3C//DTD SVG 20010904//EN"
 "http://www.w3.org/TR/2001/REC-SVG-20010904/DTD/svg10.dtd">
<svg version="1.0" xmlns="http://www.w3.org/2000/svg"
 width="700.000000pt" height="700.000000pt" viewBox="0 0 700.000000 700.000000"
 preserveAspectRatio="xMidYMid meet">
<metadata>
Created by potrace 1.14, written by Peter Selinger 2001-2017
</metadata>
<g transform="translate(0.000000,700.000000) scale(0.100000,-0.100000)"
fill="#000000" stroke="none">
<path d="M0 3505 l0 -3485 135 0 135 0 0 135 0 135 55 0 55 0 0 3210 0 3210
-55 0 -55 0 0 140 0 140 -135 0 -135 0 0 -3485z"/>
<path d="M550 6930 l0 -60 2788 2 2787 3 0 55 0 55 -2787 3 -2788 2 0 -60z"/>
<path d="M6410 6850 l0 -140 -74 0 -74 0 -70 -280 -70 -280 144 0 144 0 0
-420 0 -420 -420 0 -420 0 0 70 0 70 -695 0 -694 0 -3 -67 -3 -68 -67 -3 -68
-3 0 -1809 0 -1809 68 -3 67 -3 3 -418 2 -417 -402 0 -403 0 -298 -298 -297
-297 0 -118 0 -117 2110 0 2110 0 0 3485 0 3485 -295 0 -295 0 0 -140z"/>
<path d="M550 6760 l0 -60 -55 0 -55 0 0 -3205 0 -3205 55 0 55 0 0 -55 0 -55
975 0 975 0 0 55 0 55 118 0 117 0 303 303 302 302 0 398 0 397 70 0 70 0 0
1810 0 1810 -70 0 -70 0 0 70 0 70 -695 0 -695 0 0 -70 0 -70 -420 0 -420 0 0
420 0 420 420 0 420 0 0 -70 0 -70 695 0 695 0 0 70 0 70 420 0 420 0 0 -70 0
-70 695 0 695 0 0 70 0 70 247 2 247 3 61 245 c34 135 65 257 68 273 7 26 6
27 -27 27 l-35 0 -3 58 -3 57 -2787 3 -2788 2 0 -60z"/>
<path d="M550 70 l0 -50 975 0 975 0 0 50 0 50 -975 0 -975 0 0 -50z"/>
</g>
</svg>
